<?xml version="1.0" encoding="UTF-8"?>
<svg width="582" height="481" version="1.1" viewBox="0 0 582 481" xmlns="http://www.w3.org/2000/svg" xmlns:cc="http://creativecommons.org/ns#" xmlns:dc="http://purl.org/dc/elements/1.1/" xmlns:rdf="http://www.w3.org/1999/02/22-rdf-syntax-ns#" xmlns:xlink="http://www.w3.org/1999/xlink">
 <metadata>
  <rdf:RDF>
   <cc:Work rdf:about="">
    <dc:format>image/svg+xml</dc:format>
    <dc:type rdf:resource="http://purl.org/dc/dcmitype/StillImage"/>
    <dc:title/>
   </cc:Work>
  </rdf:RDF>
 </metadata>
 <defs>
  <linearGradient id="fza" x1="-24" x2="-286" y1="-405" y2="203" gradientTransform="matrix(.97 0 0 1 1.2 -8.1)" gradientUnits="userSpaceOnUse">
   <stop style="stop-color:#a00" offset="0"/>
   <stop style="stop-color:#800000;stop-opacity:0" offset="1"/>
  </linearGradient>
 </defs>
 <g transform="translate(-40 -52)">
  <g transform="matrix(.45 0 0 .45 280 372)">
   <g transform="translate(126 -136)">
    <path d="m-510 482c0-0.51 0.63-2.2 1.4-3.8 0.77-1.6 2.2-4.6 3.1-6.8 0.93-2.2 2.5-4.6 3.6-5.3 1.1-0.74 1.9-2 1.9-2.8 0-2.7 15-28 17-28 0.72 0 1.1-0.82 5.2-12 1.2-3.3 3-7.6 4.1-9.6 1.1-2 2-4.3 2-5s1.3-3 3-4.9 3-4.1 3-4.8c0.068-2.2 14-25 16-26 1-0.54 1.8-1.9 1.8-3 0-2.6 2.5-7.5 12-23 9.7-16 19-30 22-33 1.2-1 2.1-2.7 2.1-3.8 0-1 0.4-1.8 0.89-1.8s1.7-1.7 2.6-3.8c0.96-2.1 2.5-4.6 3.5-5.8s3.1-4.1 4.6-6.6c3.7-6 13-17 15-18 0.74-0.18 1.6-1.5 1.9-3 1.1-5 3.9-11 8.2-16 2.3-3 4.3-5.8 4.3-6.2 0-0.4 1.5-2.6 3.2-4.8 6.8-8.5 7.8-10 7.8-11 0-0.86 1.2-3 2.8-4.8 2.8-3.3 3.2-3.9 8-12 1.5-2.4 4.6-6.7 7-9.4 2.3-2.8 4.2-5.5 4.2-6 0-1.7 9.5-16 13-20 2.1-2.2 3.8-4.3 3.8-4.8 0-0.49 1.5-2.9 3.4-5.3 1.9-2.4 3.7-5.5 4.1-6.8 0.38-1.3 1.7-3.3 2.9-4.4 1.2-1.1 3.7-4.5 5.6-7.5 1.8-3 4.4-6.6 5.6-8 1.2-1.4 2.5-3.6 3-5 0.41-1.4 2.2-4.2 4.1-6.2 1.8-2 4.5-6 5.9-8.8 1.4-2.8 4.3-7 6.3-9.3 2.1-2.3 5.2-6.4 6.9-9.2s4.5-6.3 6.2-7.9c1.6-1.6 3-3.3 3-3.8s1.2-2.8 2.8-5.1c4.4-6.8 5.2-8 6.5-11 0.66-1.4 2.5-4 4-5.8 1.5-1.8 2.8-4.1 2.8-5.1s1.3-3.1 2.9-4.7 4.1-5.1 5.5-7.9c1.4-2.7 5.2-8.1 8.4-12 3.2-3.8 6.9-8.8 8.3-11 1.4-2.4 4.6-7.4 7.3-11 2.6-3.8 5.4-8.7 6.2-11 0.84-2.4 4-6.6 8-11 5.2-5.2 6.6-7.2 6.6-9.6 0-1.8 1.1-4.3 2.8-6.3 1.5-1.8 4-5.1 5.5-7.3 1.5-2.2 3.6-4.6 4.7-5.3s2-1.8 2.1-2.5 1.4-3 3-5.2 3-4.3 3-4.8 0.9-2.1 2-3.5c1.7-2.1 2-4.1 2-11 0-8.2 0.17-9 2.2-9.7 1.4-0.53 2.2-1.8 2.4-3.7 0.53-6.1 2.5-13 5.1-18 2.3-4.2 2.7-6.3 2.8-14 0.19-11 1.6-16 4.7-19 12-8.6 12-9 12-19 0-8.2 1.7-16 3.9-19 0.87-0.83 4-3.4 6.9-5.7 2.9-2.3 5.6-5.3 5.9-6.7 0.34-1.4 1.3-3.6 2.2-5 1.1-1.6 1.7-5.5 1.9-12 0.17-5.2 0.75-11 1.3-13 0.53-2.1 1.4-5.5 1.9-7.6 0.52-2.1 1.5-7.6 2.1-12s1.6-11 2.1-15c0.51-3.6 1.3-9.9 1.8-14 1.3-11 5-34 5.5-35 0.25-0.4 1.2-5.2 2-11 0.87-5.5 2-12 2.6-15 2.9-15 3.6-26 2.9-48-0.8-23-1.3-26-5.6-34-2.1-3.7-3.7-5.2-6.7-6.4-2.2-0.83-8.7-3.5-14-6-9.7-4.1-30-11-34-12-1.1-0.17-2.4-0.56-3-0.87-0.55-0.31-3.9-1.1-7.5-1.8-17-3.2-44-13-67-24-7.3-3.5-14-6.3-14-6.3-0.94 0-36-17-49-24-7.7-4.1-20-12-28-17s-16-11-18-12c-6.7-4.1-16-12-16-14 0-1.7 5.3-4.3 11-5.3 7.9-1.4 36-1.4 41-0.092 2.5 0.61 5 0.94 5.7 0.72 1.7-0.56 16 2.4 22 4.8 3.1 1.1 8.1 3.5 11 5.4s8.6 4.6 12 6c3.8 1.4 7.6 3.2 8.5 3.9 0.85 0.71 9.4 5 19 9.6 20 9.3 47 23 51 25 3.7 1.9 23 9.5 24 9.5 1.1 0 20 7.2 27 10 2.2 0.97 7.4 3 11 4.5s8.8 3.3 10 4 5.3 2 8 2.8c6.1 1.8 15 5.1 28 11 5.5 2.3 12 4.8 14 5.6 2.1 0.77 5.7 2.7 8 4.2s6.9 4.6 10 6.8c6.4 4.2 10 10 10 16 0.038 1.8 1.1 3.9 3.1 5.7 1.6 1.5 3 3.3 3 3.9s-2 3.3-4.4 6c-5.1 5.7-5.4 7.2-5.7 25-0.34 20 0.046 31 1.1 31 0.54 0 1.7-1.4 2.5-3 0.87-1.7 4.4-6.9 7.8-12 3.4-4.7 7-10 8.1-12s3.8-6.2 6.2-9.8c2.4-3.6 4.4-6.9 4.4-7.3 0-0.9 5.6-9.1 8.6-13 1.2-1.4 2.8-3.6 3.5-5.1 0.76-1.4 2.3-4 3.4-5.9 5.2-8.6 9.1-15 13-22 2.2-3.8 5.4-9.2 7.2-12s6.3-10 10-16c3.7-6.3 8.3-14 10-17 1.8-2.8 5.2-8.6 7.4-13 11-21 39-62 56-80 4.1-4.6 5.3-5.4 7.4-4.9 3.3 0.82 3.8 3.1 4.8 22 0.48 8.8 0.95 17 1 19 0.096 1.6-0.64 5.6-1.6 8.7-1.5 4.7-1.6 6-0.54 7.3 1.9 2.2 0.7 11-2.7 20-2.4 6.3-3.5 7.8-6.5 9.5-5.4 3-12 11-30 40-6.3 9.9-16 28-15 29 0.29 0.29 1.5-0.6 2.7-2 3.2-3.6 7.6-6.6 11-7.4 1.6-0.41 3.9-1.6 5-2.6 1.1-1 3.7-2.6 5.7-3.4s4.3-2.4 5-3.4c1.1-1.6 8.1-4.4 11-4.6 0.55-0.024 1.1 1.3 1.2 3 0.095 1.6 0.49 4.9 0.88 7.2 0.48 2.9 0.22 5.4-0.8 8-2.1 5.2-3.2 16-1.8 17 1.7 1 1.3 5.9-0.94 11-1.1 2.6-2.9 7.9-3.9 12-2.5 9.2-6.5 21-8.6 25-3 5.9-9.3 14-12 15-3.1 1.8-15 16-17 21-0.81 1.6-5.9 7.1-11 12-11 10-20 22-27 34-2.6 4.3-6.2 9.8-8.1 12-1.8 2.5-4.6 6.5-6.3 9.1-7.3 11-11 17-23 33-1.3 1.9-4.6 6.4-7.2 10-5.8 8-14 21-37 55-11 17-19 29-20 33-1.2 3.4-3.5 8.2-5 11-1.5 2.3-3.3 6.5-4 9.3s-2.2 7.7-3.3 11c-1.1 3.2-2.1 6.7-2.1 7.6 0 1.5-1.4 5.6-4 11-0.48 1.1-1.4 4.9-2 8.5s-1.5 7.8-2 9.5c-0.47 1.6-1.4 5.5-2.1 8.5-0.66 3-1.8 6.6-2.5 8-2.8 5.6-3.8 14-3.8 33-0.086 29 1.3 51 3.9 63 2 9 2.6 10 5.6 12 1.8 1.4 6.9 6.3 11 11 18 20 31 31 42 38 5.4 3.5 9.8 6.6 9.8 7.1 0 1.2 20 16 22 16 0.59 0.027 2.1 1.2 3.4 2.6 2.2 2.3 2.2 2.6 0.73 4.2-1.5 1.5-1.8 1.5-3.9 7e-3 -10-7.3-12-8.7-13-8.7-0.93-0.024-5.9 4.5-5.9 5.3 0 0.42 1.7 1.5 3.8 2.3 9.3 3.9 24 12 26 14 2 2.2 2.1 2.6 0.89 5.6-1 2.4-1 3.3-0.15 3.6 0.65 0.22 2.2 1.2 3.4 2.3 1.8 1.5 2.1 2.2 1.2 3.7-1.7 2.8-6.3 2.7-12-0.25-6.6-3.5-14-6.6-14-5.7 3e-3 0.4 2.5 2.3 5.5 4.2 5.5 3.5 7 5.4 6 7.1-1 1.7-4.2 0.95-7.3-1.6-1.6-1.4-3.6-2.5-4.4-2.5s-2.6-0.9-4-2-3.6-2-4.9-2-3.3-0.66-4.3-1.5c-1.1-0.81-2.9-1.5-4-1.5s-6.3-2.1-12-4.7c-6-2.9-12-5.1-17-5.9-4-0.71-8.8-2.1-11-3.1-6.8-3.6-26-20-30-26-1.2-1.7-5.5-7-9.6-12-16-19-32-43-38-60-2.3-6.5-4.3-30-4-46 0.37-16 0.9-16-6.4-4.8-1.9 2.9-5.2 6.9-7.2 9-2.1 2.1-3.8 4.3-3.8 5-6.5e-4 1.5-6 11-11 18-1.8 2.4-4.7 6.7-6.6 9.4-3.1 4.7-7.9 12-30 43-19 28-23 32-26 33-1.1 0.043-1.5 0.31-0.8 0.58 2.6 1 1 4.7-5.9 14-6.6 8.7-9.8 11-9.1 7.1 0.31-1.7 3.6-7.2 7.1-12 2.9-3.8 4.4-7.9 2.8-7.9-2.2 0-5.6 3-7.3 6.3-0.9 1.8-3 4.9-4.6 7s-3.3 5.2-3.6 6.9c-0.42 2-1.7 3.7-3.6 4.8-1.6 0.9-3.9 3.2-5 5.1-1.1 1.9-3.8 5.9-6.1 8.9-2.2 3-5.3 7.7-6.9 10s-3.9 6.3-5.2 7.8c-1.3 1.6-2.4 3.4-2.4 4.1s-1.1 2.3-2.5 3.6-2.5 2.9-2.5 3.6c0 0.7-1.7 3.2-3.8 5.6-2.1 2.4-5.8 7.2-8.2 11s-6.1 8.2-8.1 10c-2 2.3-6 7.5-9 12-5.9 8.1-13 17-18 23-8 9.2-15 19-23 30-4.9 6.8-12 16-16 21s-10 13-14 18-11 14-16 19-13 15-18 21c-4.7 6-9.7 12-11 13s-5.2 6.1-8.4 11c-3.2 4.4-7.6 9.9-9.8 12-2.2 2.3-4.5 5.1-5.1 6.2-4.6 8.1-25 35-28 37-1.1 0.75-1.9 2.2-1.9 3.2 0 0.99-1.8 3.3-3.9 5.2s-4.4 4.6-5 6.1c-0.97 2.5-3.1 3.8-3.1 1.8zm286-370c5.2-7.8 5.2-11-0.095-7.8-2.2 1.2-4 4.1-5 8.5-0.4 1.7-1.1 3.8-1.5 4.8-1.6 3.9 2.7 0.31 6.5-5.5zm19-28c3.5-6.7 0.5-8.3-3.8-2.1-2.2 3.3-2.1 5 0.28 5 1.2 0 2.6-1.2 3.5-3zm12-17c3.3-6.4 8.2-13 12-17 1.5-1.5 2.8-3.6 2.8-4.8 0-1.3 0.93-2.4 2.4-3 2.8-1.1 3.4-1.8 6.2-8.8l2.2-5.3-2.2 0.31c-1.2 0.17-2.8 1.6-3.7 3.3-0.83 1.6-2.3 4.1-3.2 5.5-0.96 1.4-1.7 3-1.7 3.6 0 0.65-2.7 4-6 7.5-3.3 3.5-6 7-6 7.9 0 0.9-1.5 3.4-3.3 5.6-3.3 3.9-6 9.8-5 11 1.2 1.2 3.1-0.72 5.7-5.6zm39-58c0.81-1.5 1.2-3.4 0.87-4.3-1.1-2.8-8.3 6.2-8.4 10l-0.014 3.5 3-3.5c1.7-1.9 3.7-4.7 4.5-6.1zm-132 195c0.37-1.9 3.4-4.1 4.4-3.2 0.35 0.35 0.13 1.6-0.49 2.7-1.3 2.5-4.3 2.8-3.9 0.44zm299-6.4c0-0.55 0.45-1 1-1s1 0.45 1 1-0.45 1-1 1-1-0.45-1-1zm-288-8c0-0.55 0.45-1 1-1s1 0.45 1 1-0.45 1-1 1-1-0.45-1-1zm8-10c0-0.55 0.48-1 1.1-1s0.78 0.45 0.44 1-0.82 1-1.1 1-0.44-0.45-0.44-1zm694-8.6c-2.5-0.71-5.7-1.1-7.2-0.81-3.4 0.62-7.8-1.6-11-5.7-2.3-2.7-2.6-4-2.4-8.2 0.29-4.7 0.13-5.1-3-7-1.8-1.1-4.9-1.9-6.9-1.9-8.3 0-21-6.9-30-16-1.6-1.7-3.3-3.1-3.8-3.1-2 0-9.8-9.1-13-15-1.8-3.5-3.8-7.1-4.5-7.9-0.67-0.82-1.4-2.8-1.6-4.5-0.29-2.6-0.8-3-3.6-3.3-2.8-0.27-3.2-0.63-2.7-2.3 0.44-1.4-0.11-2.6-1.9-3.9-3.5-2.8-5.2-8.9-6.1-22-0.19-2.8-0.65-9-1-14-0.52-6.8-0.28-11 0.96-16 0.91-4.1 1.9-14 2.3-21 0.52-12 0.84-14 2.3-14 1.3-0.34 1.9-2 2.4-6.3 0.76-6.7 3.1-14 7-22 3.6-7.2 3.2-6.6 9.7-16 14-20 39-36 70-46 18-5.6 24-6.7 37-6.7 27 0 55 13 73 33 16 18 21 25 28 39 6.2 13 9 24 11 41 1.4 13 1.5 16 0.47 26-2.5 23-9.4 43-21 61-7.9 12-28 34-35 38-1.9 0.99-4.8 2.8-6.5 4-4.5 3.4-28 15-35 17-3.3 1.1-9.2 2.5-13 3.1-3.8 0.63-8.9 1.6-11 2.1-5.8 1.3-18 0.92-23-0.64zm21-20c15-2.5 31-8.8 42-16 10-6.8 27-22 34-32 11-15 19-35 22-52 5.5-45-14-83-52-102-23-12-69-5.6-95 12-13 8.9-29 28-35 42-1.4 3.2-4 11-5.6 17-2.6 9.7-3.2 14-3.6 27-0.31 9.7-0.064 17 0.7 20 0.65 3 1.6 7.8 2.1 11 1.2 7.4 7.4 22 13 31 7.2 12 15 18 42 34 17 10 19 10 37 7.3zm-386 8.7c-0.82-0.45-4.8-2.3-8.8-4.2-4.4-2-8.8-4.9-11-7.4-2.1-2.2-4.7-4.8-5.7-5.8-5.6-5-8.4-9.4-9.8-15-0.38-1.6-2.4-5-4.5-7.5-2.5-3-4.2-6.4-4.9-9.6-0.59-2.8-2.2-7.2-3.6-9.9-1.4-2.7-2.5-6.3-2.5-8 2e-3 -1.7-0.85-4.9-1.9-7.1-3.8-8-5.1-12-5.1-14 0-1.5-0.42-3.2-0.93-3.7-1.7-1.7-6.1-23-5.4-26 0.4-2 0.052-4.3-0.99-6.3-1.8-3.7-3.9-17-4.1-27-0.074-3.6-0.65-7.4-1.3-8.6-1.7-3-0.82-43 1.1-54 6.3-36 17-65 32-88 2.7-4.1 6.4-9 8.2-11s3.2-3.9 3.2-4.5c0-0.55 2-3.3 4.4-6.2l4.4-5.2-2.3-3.4c-5-7.4-8.7-13-10-16-0.9-1.8-1.9-3.4-2.3-3.7-1.5-1.2-4.3-9-3.7-10 1.5-3.8 13 0.72 27 10 3.2 2.2 6.6 4 7.6 4 1 0 4-2 6.6-4.4 6.8-6.3 14-11 22-15 5.7-2.8 9.3-3.8 19-5 6.3-0.81 12-1.7 14-2 3.1-0.72 21 3.2 26 5.6 3 1.6 5 1.9 8.5 1.4 6.6-0.88 9 1.1 9 7.3 0 5.8 2.8 9.3 5.5 7.1 1.2-1 2.3-1.1 4.8-0.23 1.8 0.6 4.8 1.4 6.8 1.7 5.7 0.98 13 6.3 17 13 2.1 3.3 3.9 6.6 3.9 7.4 0 1.4 5.8 7.3 7.2 7.3 0.43 0 0.78-2 0.78-4.5 0-4.7 1.1-5.6 3.9-3 0.87 0.8 2.5 2.3 3.7 3.4 1.5 1.3 2.3 3.7 2.8 7.8 0.37 3.2 2 8.6 3.5 12 1.6 3.3 3.8 10 4.9 15 2 8.7 2 9 0.17 16-1.8 6.9-3.4 11-6.5 17-0.77 1.4-6 12-12 23-5.6 11-11 23-13 25-4.9 8.6-12 15-30 26-1.4 0.89-6.8 3.3-12 5.3-9.2 3.7-9.6 3.7-23 3.8-13 0.07-15-0.14-21-2.6-18-6.6-23-11-34-31-0.82-1.4-1.7-2.8-2-3.1-0.29-0.28-1.1-1.8-1.8-3.4-0.71-1.6-2.6-4.6-4.3-6.7-1.6-2.1-3.9-5.9-5.1-8.6-2.4-5.4-2.6-11-1.8-45 0.53-22-0.93-30-6.4-37-5.2-6.8-6.2-6.9-11-1.8-5.8 6.4-14 20-18 29-4.7 10-8.3 25-9.6 38-1.4 14-1.3 16 0.11 24 0.62 3.3 1.6 11 2.1 16 1.8 18 2.7 25 3.9 28 0.61 1.5 1.1 5.8 1.1 9.5 8e-3 3.7 0.71 8.7 1.6 11 0.85 2.4 2 9.6 2.6 16 0.56 6.4 1.7 13 2.6 16 1.1 3.1 1.4 6.3 1 12-0.39 5.3-0.17 7.7 0.82 8.8 0.75 0.84 1.9 4.9 2.5 9 0.63 4.1 1.5 7.9 2 8.4 1.2 1.3 1.1 8.2-0.16 13-0.89 3.2-0.73 4.5 1 8.1 1.1 2.3 2.1 5.9 2.1 7.9 0 2 2 9.5 4.5 17 3.3 9.8 4.7 16 5.4 23 0.56 6.2 1.5 11 2.6 12 0.91 1.4 5 4.4 9.1 6.6 4.1 2.3 7.7 4.5 8 5 0.69 1.1-6.5 1.1-8.6-0.021zm65-248c0.34-0.96 2.1-3.9 4-6.4 6.9-9.6 15-47 12-54-0.5-1.3-0.65-3.6-0.34-5.2 0.42-2.1-0.078-3.6-1.9-5.8-3.9-4.6-4.8-6.9-6.2-16-1.4-8.5-3.5-13-5.7-13-0.64 0-3.5-2.4-6.3-5.4-3.7-3.9-6.2-5.6-8.8-6.1-2-0.38-3.9-1.1-4.2-1.5-0.99-1.6-9.3-2.2-13-0.91-8.9 2.9-26 17-26 21 0 0.96 3.7 5.3 8.2 9.7s9.6 9.3 11 11 8.5 8.4 15 15c9.6 9.4 13 13 15 18 3.7 7.7 5.4 19 5 33-0.3 8.5 0.43 11 1.9 7.3zm-605 181c-0.68-0.68-1.2-3.9-1.2-7.5 0-6.8-0.57-7.4-5.5-5.1-1.7 0.79-2.9 0.84-3.6 0.17s1.2-2.5 5.8-5.5c3.8-2.5 8.2-5.9 9.8-7.7 2.9-3.1 4.8-3.7 7.9-2.5 2.6 0.98 1.8 3.2-1.9 5.6-4.5 3-5.5 5.5-5.5 14 0 4.9-0.45 7.3-1.6 8.5-1.9 1.9-2.6 2-4.2 0.37zm24 0.017c-0.26-0.72-0.59-7.1-0.74-14-0.25-11-0.093-13 1.5-13 3.6-1.1 5.6 0.47 5.9 4.8l0.31 4.1 6.5 1.1c7.6 1.3 9 2 9 4.6 0 1.5-0.69 1.9-3.2 1.9-1.8-0.02-4.4-0.68-5.8-1.5s-3.5-1.4-4.7-1.5c-2-0.033-2.2 0.48-2.5 7.2-0.29 7.1-0.36 7.3-3 7.6-1.6 0.19-2.9-0.23-3.2-1zm105-0.4c-0.33-0.87-0.61-5.8-0.61-11v-9.3l8.2-0.53c4.5-0.29 11-1.1 14-1.8 4.1-0.85 6.6-0.97 7.2-0.33 0.6 0.6 0.7 4.6 0.25 10l-0.73 9.5-9 1.3c-5 0.69-10 1.7-11 2.3-3.5 1.5-7.9 1.2-8.6-0.57zm18-5.4c4.8-1.1 4.8-1.1 5.4-6.3 0.68-6-0.72-7-8.2-5.8-7.6 1.2-8.6 2.2-8.6 8.1v4.9l3.8-0.024c2.1-0.013 5.5-0.42 7.6-0.91zm-200 4.6c-0.75-2-0.28-2.2 5.5-3 5.2-0.76 7.1-2.4 6.7-5.7-0.24-1.7-1.3-2.5-4-3.1-4.3-1-5.8-3.5-2.5-4.1 8.3-1.6 19-2.7 20-2.2 1.3 0.51 1.4 0.91 0.4 2.1-0.68 0.82-2 1.5-3 1.5-2.7 0-5.1 2.9-4.8 5.9 0.29 2.5 0.57 2.6 6.3 2.6 4.6 0 6 0.34 6 1.5 0 1.7-2.7 2.4-14 4-4.7 0.63-10 1.4-12 1.7-2.7 0.38-3.8 0.11-4.2-1zm150-0.49c-1.5-1.5-2.1-3.4-2.1-6.6v-4.5l-4.8 0.24c-4.1 0.21-4.8-0.02-4.8-1.7 0-1.4 1.1-2.2 4.5-3 4.4-1.1 4.5-1.2 4.8-5.4 0.3-4.2 0.4-4.3 3.5-4 2.6 0.26 3.2 0.78 3.5 3.1 0.27 2.3 0.79 2.8 3.3 2.8 1.6 0 4.6-0.67 6.6-1.5 2.8-1.2 10-0.88 9.9 0.5-0.62 2.8-8 7.2-11 7.2-0.96 0-2.3 0.93-2.6-0.17-1.2-4.6-7.3-0.44-7.3 5 0.028 4.7 1.2 5.4 7.6 4.6 9.9-1.3 12-1.2 12 0.59 0.44 2.2-4.4 3.8-14 4.5-6.9 0.54-7.8 0.39-9.8-1.5zm-179 2.6c0-0.26 6.8-5.5 10-9 6.2-6.2 8.8-11 6.9-13-0.49-0.48-3.5-0.17-6.9 0.71-3.3 0.86-7.8 1.6-10 1.7-3.4 0.097-4-0.2-4-1.9 0-1.7 0.89-2.1 6.7-2.7 3.7-0.37 9.9-1.4 14-2.2 7.6-1.7 10-1.4 10 1.6 0 5.2-8.6 17-15 20-4.1 2.1-12 5.5-12 4.8zm139-11c0-0.52 1.9-2.6 4.2-4.6 8.1-7 14-8.7 7.3-2-4.1 3.8-12 8.1-12 6.6zm-220-33c-1-0.66-1.2-1.3-0.45-2 0.72-0.72 63-0.97 200-0.79 177 0.22 199 0.42 199 1.8 0 1.3-23 1.5-199 1.7-124 0.15-200-0.12-200-0.71zm917-8.2c-0.7-1.3-2.3-4.4-3.5-7-1.5-3.1-2.9-4.8-4.4-5-2.2-0.33-4.8-4.5-9.7-15-1.2-2.8-4.3-7.2-6.8-9.9-2.5-2.7-4.5-5.6-4.5-6.4-5e-3 -0.84-0.28-5.6-0.6-11-1.1-17-1.2-19-1.1-33 0.15-36-2-86-4.4-101-0.56-3.6-1.4-9.6-1.9-14s-1.8-9.9-2.9-14c-1.1-3.6-2.7-9.5-3.6-13s-2-7.5-2.5-8.5c-0.53-0.97-1.9-3.8-3-6.3-2-4.5-9.7-17-11-18-0.38-0.28-1.8-2.8-3.1-5.5s-3.4-6.5-4.6-8.3c-3-4.4-3.9-8.9-2.2-11 2.9-3.4 16 0.12 24 6.2 3.1 2.6 16 8.4 18 8.4 1.4 3e-3 5 1.8 8 4 3 2.2 8.7 5.8 13 8 13 6.9 22 19 26 31 0.93 3.3 2.3 6.9 3.1 8 0.78 1.1 1.4 3.2 1.4 4.5 0.018 1.4 0.69 3.4 1.5 4.5 0.81 1.1 1.5 3.6 1.5 5.7s0.46 4 1 4.4c2.9 1.8 5 13 5.5 30 0.11 4.1 0.72 8.8 1.4 10 0.63 1.5 1.2 3.9 1.2 5.3 0 3.5 2.9 2.8 5.5-1.4 1.1-1.8 2.4-3.2 2.9-3.2 0.47-0.021 3-2 5.6-4.3 6-5.4 20-13 28-16 3.6-1.2 7.7-2.8 9.2-3.6 4.1-2.3 22-6.6 32-7.9 1.6-0.2 5.7-0.84 9-1.4 9.6-1.7 51-2.5 60-1.2 4.7 0.61 12 1.3 16 1.6 4.4 0.24 13 0.7 18 1 25 1.4 51 2.1 53 1.6 1.3-0.34 6-0.3 10 0.088 4.5 0.39 16 0.98 25 1.3s19 1.2 21 1.9c4.7 1.3 13 6.8 14 9.5 1 2.4-1.4 5.1-5.7 6.2-2.3 0.61-5.6 1.9-7.3 2.9-1.7 0.98-5.4 2.3-8.2 3-5.9 1.4-6 3-0.19 3 5.1 0 5.6 1.1 2 4.5-2.6 2.5-4.1 2.9-12 3.7-14 1.3-44 1.8-52 0.78-16-1.9-32-4.1-35-5.1-4.4-1.1-7.6-1.8-25-4.8-14-2.4-41-2.9-56-1-4.7 0.59-11 1.1-14 1.1-3 0.025-6.4 0.5-7.4 1s-4.7 1.6-8 2.4c-18 4.1-34 11-43 20-14 12-29 33-34 45-0.98 2.5-2.6 5.8-3.6 7.5-0.99 1.6-1.8 3.9-1.8 5-9e-3 1.1-0.89 4.8-2 8.2-1.2 4-2.1 10-2.4 18-0.27 6.8-1.1 13-2 16-0.89 2.4-1.6 7.5-1.6 11-0.015 4.9-0.63 8.5-2 11-1.7 3.8-2.3 4.2-5.3 4.2-3.1 0-3.8 0.65-8.3 7.2-3.8 5.5-5.6 7.3-7.6 7.6-1.9 0.23-3-0.32-3.9-2zm-776-2.8c-7.1-1.6-12-7.4-15-18-4.3-14-2.1-40 4.5-53 3.9-7.8 14-21 26-32l11-11-0.32-19c-0.27-15-0.62-19-2.1-22-2-3.6-4.6-4.2-7.1-1.4-2.3 2.5-2.1 8.1 0.54 14 3.3 7.8 3.2 22-0.047 29-4.2 8.6-13 12-21 8.2-3.7-1.9-8.4-8-10-13-1.8-5.5-1.5-22 0.51-29 3.2-11 11-22 21-29 5.7-3.9 15-6.5 21-5.8 12 1.4 21 8.1 26 19 6 13 6.2 15 6.9 71 0.35 28 0.72 51 0.82 51 0.098 0.14 0.83 0.25 1.6 0.25 2.1 0 8.5 8.8 8.5 12 0 3-6.1 16-9.5 21-4 5.3-9 7.7-15 7.7-7.8 0-14-3.8-18-11-1.9-3.6-3.1-3.5-6.9 1-5.8 6.7-16 11-23 9.2zm52-8.4c3.2-1.4 6.5-5.5 8.5-11 0.92-2.4 0.75-2.8-1.7-4-4.9-2.4-5.2-4.7-5.3-58-0.1-44-0.33-51-2.1-61-2.7-16-7.3-25-15-29-6.5-2.9-13-2.5-21 1.6-11 5.5-17 14-21 32-2.2 9.3-0.088 19 4.9 24 5.3 4.9 10 0.38 11-11 0.53-5.1 0.19-7.3-2.1-14-5.3-15-4.2-22 4.6-28 3.9-2.4 5.2-2.7 8.5-2.1 5.3 0.99 9.8 5.7 12 12 1.2 4.1 1.6 9.8 1.6 24-7e-3 20-0.45 22-5.9 26-3.8 2.7-22 24-27 31-2.7 4-5.9 11-7.5 15-2.6 8-2.8 9-2.3 23 0.49 16 1.6 20 6.5 25 2.1 2.2 3.5 2.8 7.2 2.8 4.3 0 4.9-0.33 11-6.9 3.6-3.8 7.4-8.6 8.5-11 2.7-5.3 4.5-7.4 6.6-7.4 2 0 2.1 0.25 4.5 11 1.9 8.7 4.9 13 9.2 14 1.5 0.23 2.8 0.48 3 0.56 0.16 0.082 1.8-0.47 3.6-1.2zm-37-24c-1.8-1.4-3.3-4.3-4.8-9.1-4.7-15 0.88-36 14-52 4.8-5.9 7.7-7.6 9.2-5.2 0.47 0.74 0.86 13 0.87 28 0.014 25-0.12 27-2.1 31-4.2 8.6-12 12-17 7.3zm8.8-9.9c1.2-2.3 1.5-6.6 1.5-19 0-8.8-0.39-16-0.88-16-1.1 0-4.7 8.4-6.1 14-2.2 9.7-0.74 24 2.5 24 0.76 0 2.1-1.3 2.9-3zm197 42c-18-4.2-29-25-33-62-6.5-59 7.8-109 34-118 7.3-2.4 12-2.1 19 1 14 7.2 25 36 26 72 0.56 11 0.44 13-1.1 14-1.3 1.1-6.4 1.6-22 1.9l-21 0.5-0.34 5c-0.67 9.7 4.1 33 8.5 42 4 8 9.5 10 13 4.9 2.5-3.5 6.2-12 9.1-20 2.9-8.8 5.2-9.1 9.9-1.4 4 6.6 4 9.2 0.11 21-6.2 19-15 33-24 37-5.2 2.2-13 3.1-18 1.9zm16-11c4.3-2.5 9.4-9.2 12-16 1.7-4.3 1-4.8-3.1-2.3-5.8 3.5-13 2.3-18-3.1-7.9-8.6-15-36-15-57-0.017-3.9 0.24-7.9 0.58-8.8 0.53-1.4 3.5-1.6 22-1.6h22v-3.8c0-7-2.1-26-3.7-33-4.9-22-12-33-22-35-3.8-0.66-12-2.4-9.9-0.95 1.1 0.87 10 3.4 11 3.5 4.6 0.13 8.3 20 8.4 45 0.08 12-0.2 16-1.2 17-0.74 0.47-7.3 0.86-15 0.87-13 0.015-13 8e-3 -14-2.4-0.95-3.8 1.4-38 3.2-47 0.89-4.3 7.2-17 6.9-17-1.1-1.1-9 5.7-15 13-5.4 7.5-6.3 17-7.8 23-4.9 17-6.1 45-3.1 75 2.5 24 11 46 20 51 7 3.7 12 3.5 19-0.44zm-4.3-103c0.96-1.5 0.54-20-0.64-28-2.2-15-4.1-18-7.1-8.9-2.9 8.6-5.2 36-3.2 38 1.1 1.1 10 0.75 11-0.43zm-106 111c-3.4-0.66-11-7.6-13-13-1.5-2.7-3.6-8-4.8-12-2-6.6-2.1-8.7-2.1-63 0-61 0.17-59-5.5-59-4.7 0-5.5-0.91-5.5-6.4 0-4.4 0.62-6.1 4.3-12 9.9-15 17-31 25-54 2.4-7.4 5-14 5.8-15 2-1.6 9.4-1.6 11-0.05 0.88 0.88 1.2 9 1.2 30 0 26 0.19 29 1.6 30 0.87 0.33 6.7 0.61 13 0.61 16 0 16-0.4 0.61 17-4.5 5.2-8.4 8.8-9.5 8.8-1 0-2.7 0.47-3.8 1-1.9 1-1.9 2.7-1.9 57 0 31 0.39 56 0.89 56 1.4 0.84 2.8-1.4 4.4-7.1 1.8-6.3 3.4-9.3 4.8-9.3 1.5 0 5.9 5 8.1 9.4l2 3.9-2.7 8.1c-4.7 14-10 23-19 27-3.5 1.8-9.1 2.3-14 1.2zm12-9.2c1.6-1.1 4.2-3.9 5.8-6.2l2.9-4.3-2.3-0.28c-7.2-0.87-9.3-2.9-11-11-0.51-2.7-0.99-31-1.1-63-0.18-65-0.79-60 8-61 4.3-0.42 5.6-1.1 8.6-4.4 1.9-2.1 3.5-4.3 3.5-4.9 0-0.58-3.4-1-8.2-1-4.5-8e-3 -8.9-0.44-9.8-0.96-1.2-0.78-1.6-4.8-2-22-0.29-12-0.89-21-1.4-21-0.51 0.11-1.7 2.6-2.6 5.5-0.94 2.9-4.2 10-7.2 16-5.9 12-7.8 19-5.6 20 0.91 0.58 0.24 1-2.1 1.4-2.6 0.38-4.3 1.6-6.8 4.8-1.8 2.4-3.1 4.7-2.8 5.1 0.27 0.43 2.3 1.1 4.5 1.4 3 0.47 4.3 1.3 4.8 2.9 0.44 1.2 0.69 28 0.57 59-0.24 62-0.18 63 5.6 75 5.1 10 12 13 18 9zm-281 6.4c-1.8-2.1-0.56-12 1.7-13 0.94-0.69 3.4-1.2 5.4-1.2 6.1 0 7.8-2.2 9-12 1.6-13 0.82-192-0.85-196-1.4-3.3-4.7-5.4-8.8-5.4-4.4 0-6.1-1.6-6.8-6.5-0.51-3.4-0.28-5.2 0.91-7l1.6-2.4h53c48 0 53 0.15 55 1.7 1.1 1.3 1.4 8.8 1.7 37 0.16 19 0.027 36-0.3 37-0.55 2.2-0.96 2.3-6.2 1.9-6.5-0.54-8.3-2.2-8.3-7.9 0-4.9-3.6-23-6.1-30-2.8-8.3-5.8-12-11-15-4.7-2.3-16-4.1-20-3.2-2.4 0.49-2.8 1.1-3.3 5.7-1 9.8-0.15 81 0.99 81 1.5 0.49 7.3-3.6 9.6-6.7 2.6-3.5 4.6-12 6.3-27 0.78-7.1 1.9-13 2.6-14 1.9-1.9 10-1.2 12 0.89 1.9 2.5 2 122 0.15 124-1.6 1.6-11 1.6-13-0.05-0.54-0.69-1.3-6.1-1.7-12-1.1-18-4.3-31-8.4-36-2.7-3.1-7.3-5.1-8.2-3.6-1.1 1.7-1.2 77-0.099 84 0.99 6.9 4.2 11 9.3 11 5.8 0 6.9 1.4 6.9 8.4 0 4.9-0.37 6.5-1.6 7-0.87 0.33-17 0.61-36 0.61-29 0-34-0.21-36-1.5zm56-7.3c0.73-0.097-0.17-1.6-2.1-3.5-6-6-6.2-7.9-6.2-60 0.027-36 0.33-47 1.3-48 1.8-1.8 11-1.1 15 1.1 4.9 2.5 12 9.8 13 14 0.67 2 1.6 3.7 2.2 3.7 1.1 0 1.1-4.4 0.18-27l-0.58-15-2.1 4.2c-4 7.8-23 15-28 10-2-1.8-2.1-2.5-1.5-20 0.56-16-2e-3 -38 0.2-57 0.22-19 0.49-23 1.9-24 1.3-1.3 3.6-1.6 12-1.3 5.9 0.16 13 0.79 17 1.4 5.6 1 6.5 1.6 13 8.6 6 6.2 13 47 14 46 0.81-0.67-0.27-41-0.27-43 0-2-1.8-13-2-15l-0.49-3.3-17 0.14c-9.1 0.077-28 0.094-42 0.038-14-0.056-26 0.19-26 0.54-0.35 0.35 0.57 1.6 2.1 2.8 3.5 2.8 4.8 6.5 4.8 13 0.045 8.3 1.5 29 1.3 108-0.25 90-0.47 93-5.8 99-1.8 1.9-3.1 3.5-2.9 3.7 0.29 0.28 36 0.23 38-0.062z" style="fill:#1a1a1a"/>
    <ellipse transform="matrix(.97 -.26 .49 .87 0 0)" cx="-359" cy="-29" rx="1.4" ry="2.8" style="fill:#1a1a1a;stop-color:#000000;stroke-width:65"/>
    <path d="m-493 474 9.1-18 17-30 1.9-0.77 12-33 55-92 21-32 6.7-5 1.1-11 178-268 3.4-4 11-18 3-2.3 6.9-11 3-6.4 0.19-18 3.9-2.1 4.3-18 3.4-8.3 2.1-24 13-12 2.6-27 13-11 5.8-9.8 189-313 43-61 5.6-1.9 3 10 1.5 35-3 10 1.9 5.4-3.7 18-5.6 8.1-7.5 4.6-18 27-17 32-2.2 5.8s40-27 40-25-1.5 35-1.5 35l-13 51-9 12-7.6 7.4-14 19-24 25-256 393-179 234-62 75-19 29z" style="fill:url(#fza)"/>
    <path d="m-134-167c5.5-2.9 9-6.7 12-13 2.5-5.3 3-8 3.3-16 0.21-5.3 1.3-13 2.5-18 1.9-7.6 3.5-19 6.2-41 1.2-9.9 3.6-26 5.5-35 7.7-39 8.9-50 8.1-74-0.69-23-1-25-5-33-3.7-7.9-1.8-6.6-23-15-11-4.4-38-13-42-13-1.8 0-24-6.7-34-10-12-4.3-23-8.7-33-14-5.1-2.4-9.5-4.4-9.8-4.4-0.66 0-22-10-34-16-26-13-35-18-48-27-7.7-5.3-15-11-17-12-1.9-1.1-4.4-3-5.7-4.1s-3.7-2.9-5.6-3.9c-3.7-2.1-5.3-6.1-3.1-7.5 3.5-2.2 9.6-3.1 25-3.6 13-0.42 18-0.2 23 1 3.4 0.86 7.1 1.3 8.3 1 3.8-0.99 20 3.5 27 7.2 5.6 3.2 13 7.2 20 9.7 1.4 0.57 3.6 1.7 5 2.4 4.8 2.7 28 14 35 17 4.1 1.8 13 5.9 19 9.1 6.3 3.2 13 6.5 14 7.3 12 5.5 20 8.7 25 10 6.2 1.8 17 5.7 41 15 7.7 3 17 6.7 22 8.2 22 8.1 41 16 47 20 9.8 6.3 16 11 16 13 0 0.81 0.7 2.5 1.6 3.9 0.86 1.3 1.4 3 1.3 3.7-0.44 2.3 1.2 5.8 3.2 6.9 0.67 85-13 208-44 280 0 0.76-0.95 3.2-2.1 5.3-4.8 9-7.6 15-8.3 18-0.37 1.6-1.8 6.8-3.2 12-1.4 4.7-3.1 10-3.7 12s-1.7 4.9-2.3 6-1.5 4.7-1.9 8-1.3 7.6-2 9.5-1.6 5.5-1.9 8-1.5 6.3-2.5 8.5c-4 8.6-4.4 14-3.7 48 0.53 26 1 34 2.6 42 2.9 15 4 17 8.6 20 2.2 1.5 7.7 7 12 12 4.5 5.2 13 13 18 18 5.5 4.8 10 9 10 9.3 0 0.36 1.7 1.7 3.8 3.1 10 6.4 16 11 19 13 6.3 5.9 11 9.6 17 13 6.7 4.1 7.7 5 6.4 5.9-0.45 0.28-3.7-1.5-7.2-3.9-3.5-2.4-7-4.4-7.7-4.4s-3.1 1.3-5.3 2.9c-3.7 2.7-3.9 3-2.2 4.5 0.97 0.88 3.5 2.3 5.7 3.2 7.9 3.3 20 9.6 23 12 3 2.4 3.3 4.6 0.82 6.5-1.7 1.3-1.7 1.5 0.11 2.6 5.7 3.7 6.7 4.9 5.5 6.4-1.6 1.9-5.7 0.97-14-3.3-3.5-1.9-6.9-3.4-7.6-3.4-0.69 0-4-1.8-7.4-4-6.2-4-14-8-15-8-3.2 0 6 8 13 11 3.9 1.7 16 10 16 11 0 1.4-1.5 1.1-4.1-0.95-1.3-1-3.5-2.2-4.9-2.6s-3.2-1.4-4.1-2.1c-0.87-0.76-3-1.5-4.8-1.8-1.8-0.21-4-1.1-5-2s-3.1-1.6-4.6-1.6c-1.5 0-6.7-2-11-4.4-5.7-2.9-11-4.8-16-5.6-8.5-1.4-13-3.4-21-11-3.8-3.2-9-7.5-12-9.6-2.5-2.1-5.4-5.2-6.3-7-1.6-3.1-6.4-8.9-16-20-10-11-26-38-31-52-29-53 12-227 14-240z" style="fill:#1a1a1a"/>
    <ellipse transform="matrix(.97 -.26 .49 .87 0 0)" cx="-356" cy="-29" rx="1.4" ry="2.8" style="fill:#1a1a1a;stop-color:#000000;stroke-width:65"/>
   </g>
  </g>
  <path transform="translate(40 52)" d="m15 270c0-0.18 0.6-1 1.3-1.9 0.86-1 1.5-2.7 1.8-4.7 0.56-3.9 0.55-87-0.0061-90-0.22-1.1-1-2.7-1.7-3.6l-1.3-1.6 5.3-0.35c2.9-0.19 11-0.35 19-0.35l14-3e-3 0.61 4.1c0.34 2.3 0.59 8.3 0.57 13l-0.042 9.4-2-8.2c-2.3-9.4-3.4-12-6.2-14-1.8-1.4-2.6-1.6-8.3-2.2-8.3-0.77-8.8-0.55-9.3 4-0.49 4.7-0.43 41 0.062 42 1.7 2.6 10-0.21 13-4.1 0.77-1.3 0.84-0.93 1.2 5.4 0.21 3.7 0.3 7.9 0.2 9.2l-0.18 2.5-1-1.9c-1.3-2.5-4-5.3-6-6.4-1.7-0.9-6-1.3-6.7-0.54-0.25 0.25-0.45 10-0.45 22 0 23 0.16 24 2.5 27 0.59 0.53 1.1 1.2 1.1 1.4s-3.8 0.46-8.4 0.46-8.4-0.15-8.4-0.33z" style="fill:#f9f9f9;stop-color:#000000;stroke-width:35"/>
  <path transform="translate(40 52)" d="m72 272c-0.64-0.32-1.7-1.6-2.4-2.8-1.1-1.9-1.3-3.2-1.5-9.1-0.22-6-0.1-7.3 0.93-10 1.9-5.8 5.5-11 14-19l4.1-4.2v-10c0-10-0.0035-10-1.5-12-2-3-4.5-3.9-7.2-2.6-4.2 2-5.1 5.6-3 12 1.3 4.3 1.4 7.8 0.14 10-1.9 3.8-5.6 1.4-6.4-4.2-0.79-5.3 2.2-13 6.3-17 6.3-5.9 14-5.2 17 1.5 2.7 5.9 3 8.8 3.3 32 0.29 26 0.39 28 2.2 29 1.3 1.2 1.3 1.3 0.43 3.2-1.6 3.3-4.3 4.8-7 3.8-1.2-0.47-2.5-3.1-3.5-7.3-1.1-4.6-2.1-4.8-4.6-0.99-4.3 6.8-8.1 9.5-11 8zm12-11c2.4-2.5 2.6-3.8 2.6-17 0-12-0.046-13-1-13-2.5 0-7.9 8.4-9.6 15-1.5 5.5-0.66 13 1.7 15 1.5 1.6 4.6 1.4 6.4-0.46z" style="fill:#f9f9f9;stop-color:#000000;stroke-width:35"/>
  <path transform="translate(40 52)" d="m129 271c-1.8-0.91-4.7-5.8-5.4-9.2-0.35-1.7-0.6-12-0.64-28-0.036-14-0.22-26-0.41-27-0.26-1.2-0.77-1.7-2.1-2.1-0.97-0.28-1.8-0.74-1.8-1 0-1.1 2.2-3.6 3.4-3.9 1-0.26 1.3-0.71 1.4-2.2 0.039-1 1.3-4.5 2.7-7.8 1.5-3.2 3-6.7 3.4-7.8l0.76-1.9 0.39 2.2c0.21 1.2 0.43 5 0.47 8.4 0.12 9 0.089 9 4.4 9.2 4.4 0.21 5 0.73 3 2.8-1 1.1-2.3 1.7-3.9 1.9-2 0.29-2.5 0.64-3 1.8-0.35 0.92-0.49 11-0.38 28 0.19 30 0.15 29 3.7 31 2.1 0.69 2.1 1.3 0.46 3.4-2.1 2.6-4.1 3.3-6.5 2.1z" style="fill:#f9f9f9;stop-color:#000000;stroke-width:35"/>
  <path transform="translate(40 52)" d="m170 272c-4.1-1.8-7.2-8.1-9.4-19-0.77-3.9-0.97-7.6-0.98-18-5e-3 -13 0.063-14 1.5-20 0.85-3.6 2.2-7.7 2.9-9.1 1.5-2.8 5.9-7.4 6.5-6.9 0.2 0.2-0.28 1.8-1.1 3.6-1 2.4-1.6 4.9-2 9.1-0.97 11-1.2 15-0.69 16 0.34 0.52 2.1 0.66 6.7 0.55l6.2-0.15-0.049-9.8c-0.037-7.4-0.28-11-0.98-13-1.1-4.2-1.2-4.4-4.6-5.6l-2.6-0.95 2.5 0.32c1.3 0.18 3.2 0.74 4.1 1.3 4.5 2.6 7.9 13 8.8 26l0.35 5.4h-9.2c-6.9 0-9.5 0.19-10 0.74-0.91 0.67-0.98 1.3-0.65 6.4 0.61 9.6 3.4 19 6.7 23 2.3 2.5 4.6 3.1 7.4 1.9 1.9-0.78 2-0.77 2 0.12 0 1.2-2.7 5.4-4.4 7-2.6 2.3-5.9 2.9-8.9 1.6z" style="fill:#f9f9f9;stop-color:#000000;stroke-width:35"/>
 </g>
</svg>
